<svg viewBox="0 0 492 365" fill="none" xmlns="http://www.w3.org/2000/svg">
<path d="M396.263 164.737H239.963C235.565 164.737 232 161.172 232 156.774V7.96313C232 3.56514 235.565 0 239.963 0H396.263C400.661 0 404.226 3.56514 404.226 7.96313V156.774C404.226 161.173 400.661 164.737 396.263 164.737Z" fill="#6277D7"/>
<path d="M329.993 23.8462H255.832C254.512 23.8462 253.442 22.7761 253.442 21.4561C253.442 20.1361 254.512 19.0662 255.832 19.0662H329.993C331.313 19.0662 332.383 20.1361 332.383 21.4561C332.383 22.7761 331.313 23.8462 329.993 23.8462Z" fill="#E1E9FF"/>
<path d="M329.994 112.78H255.833C254.513 112.78 253.443 111.71 253.443 110.39C253.443 109.07 254.513 108 255.833 108H329.994C331.314 108 332.384 109.07 332.384 110.39C332.384 111.71 331.314 112.78 329.994 112.78Z" fill="#E1E9FF"/>
<path d="M329.551 35.78H255.39C254.07 35.78 253 34.7099 253 33.3899C253 32.0699 254.07 31 255.39 31H329.551C330.871 31 331.941 32.0699 331.941 33.3899C331.941 34.7099 330.871 35.78 329.551 35.78Z" fill="#E1E9FF"/>
<path d="M329.552 124.714H255.391C254.071 124.714 253.001 123.644 253.001 122.324C253.001 121.004 254.071 119.934 255.391 119.934H329.552C330.872 119.934 331.942 121.004 331.942 122.324C331.942 123.644 330.872 124.714 329.552 124.714Z" fill="#E1E9FF"/>
<path d="M329.551 47.78H255.39C254.07 47.78 253 46.7099 253 45.3899C253 44.0699 254.07 43 255.39 43H329.551C330.871 43 331.941 44.0699 331.941 45.3899C331.941 46.7099 330.871 47.78 329.551 47.78Z" fill="#E1E9FF"/>
<path d="M329.552 136.714H255.391C254.071 136.714 253.001 135.644 253.001 134.324C253.001 133.004 254.071 131.934 255.391 131.934H329.552C330.872 131.934 331.942 133.004 331.942 134.324C331.942 135.644 330.872 136.714 329.552 136.714Z" fill="#E1E9FF"/>
<path d="M329.551 59.78H255.39C254.07 59.78 253 58.7099 253 57.3899C253 56.0699 254.07 55 255.39 55H329.551C330.871 55 331.941 56.0699 331.941 57.3899C331.941 58.7099 330.871 59.78 329.551 59.78Z" fill="#E1E9FF"/>
<path d="M305.71 71.78H255.39C254.07 71.78 253 70.7101 253 69.3901C253 68.0701 254.07 67 255.39 67H305.71C307.03 67 308.1 68.0701 308.1 69.3901C308.1 70.7101 307.03 71.78 305.71 71.78Z" fill="#E1E9FF"/>
<path d="M381.96 70.4141H368.707C367.764 70.4141 367 69.65 367 68.707C367 67.764 367.764 67 368.707 67H381.96C382.903 67 383.667 67.764 383.667 68.707C383.667 69.65 382.903 70.4141 381.96 70.4141Z" fill="#89AEFF"/>
<path d="M267.961 147.414H254.708C253.765 147.414 253.001 146.65 253.001 145.707C253.001 144.764 253.765 144 254.708 144H267.961C268.904 144 269.668 144.764 269.668 145.707C269.668 146.65 268.904 147.414 267.961 147.414Z" fill="#89AEFF"/>
<path d="M314.421 95.311L254.708 95.311C253.765 95.311 253.001 94.547 253.001 93.604L253.001 86.707C253.001 85.764 253.765 85 254.708 85L314.421 85C315.364 85 316.128 85.764 316.128 86.707L316.128 93.604C316.128 94.547 315.364 95.311 314.421 95.311Z" fill="#89AEFF"/>
<path d="M382.421 95.311L322.708 95.311C321.765 95.311 321.001 94.547 321.001 93.604L321.001 86.707C321.001 85.764 321.765 85 322.708 85L382.421 85C383.364 85 384.128 85.764 384.128 86.707L384.128 93.604C384.128 94.547 383.364 95.311 382.421 95.311Z" fill="#89AEFF"/>
<path d="M381.832 29.311L351.707 29.311C350.764 29.311 350 28.547 350 27.604L350 20.707C350 19.764 350.764 19 351.707 19L381.832 19C382.775 19 383.539 19.764 383.539 20.707L383.539 27.604C383.539 28.547 382.775 29.311 381.832 29.311Z" fill="#89AEFF"/>
<path d="M381.833 116.311L351.708 116.311C350.765 116.311 350.001 115.547 350.001 114.604L350.001 107.707C350.001 106.764 350.765 106 351.708 106L381.833 106C382.776 106 383.54 106.764 383.54 107.707L383.54 114.604C383.54 115.547 382.776 116.311 381.833 116.311Z" fill="#89AEFF"/>
<path d="M381.832 45.311L351.707 45.311C350.764 45.311 350 44.547 350 43.604L350 36.707C350 35.764 350.764 35 351.707 35L381.832 35C382.775 35 383.539 35.764 383.539 36.707L383.539 43.604C383.539 44.547 382.775 45.311 381.832 45.311Z" fill="#89AEFF"/>
<path d="M381.833 132.311L351.708 132.311C350.765 132.311 350.001 131.547 350.001 130.604L350.001 123.707C350.001 122.764 350.765 122 351.708 122L381.833 122C382.776 122 383.54 122.764 383.54 123.707L383.54 130.604C383.54 131.547 382.776 132.311 381.833 132.311Z" fill="#89AEFF"/>
<path d="M381.832 60.311L351.707 60.311C350.764 60.311 350 59.547 350 58.604L350 51.707C350 50.764 350.764 50 351.707 50L381.832 50C382.775 50 383.539 50.764 383.539 51.707L383.539 58.604C383.539 59.547 382.775 60.311 381.832 60.311Z" fill="#89AEFF"/>
<path d="M381.833 147.311L351.708 147.311C350.765 147.311 350.001 146.547 350.001 145.604L350.001 138.707C350.001 137.764 350.765 137 351.708 137L381.833 137C382.776 137 383.54 137.764 383.54 138.707L383.54 145.604C383.54 146.547 382.776 147.311 381.833 147.311Z" fill="#89AEFF"/>
<path d="M363.458 279.691L373.703 364.614H377.062L366.818 279.691H363.458Z" fill="#D2DCFF"/>
<path d="M408.726 279.69L409.878 289.241L418.969 364.613H422.328L413.193 288.867L412.086 279.69H408.726Z" fill="#D2DCFF"/>
<path d="M363.458 364.613H366.818L368.234 352.868L369.915 338.942L375.44 293.135L377.062 279.69H373.702L372.034 293.519L368.234 325.014L366.556 338.94L363.458 364.613Z" fill="#D2DCFF"/>
<path d="M318.191 364.613H321.551L329.501 298.698H329.502L331.794 279.69H328.434L326.097 299.065L318.191 364.613Z" fill="#D2DCFF"/>
<path d="M411.922 222.921H408.562V274.291H411.922V222.921Z" fill="#D2DCFF"/>
<path d="M366.269 222.921H362.91V274.291H366.269V222.921Z" fill="#D2DCFF"/>
<path d="M327.024 274.291H373.183C371.692 274.291 370.483 275.499 370.483 276.99C370.483 278.481 371.692 279.69 373.183 279.69H327.024C325.533 279.69 324.324 278.481 324.324 276.99C324.324 275.499 325.533 274.291 327.024 274.291Z" fill="#D2DCFF"/>
<path d="M370.483 276.99C370.483 275.499 371.692 274.291 373.183 274.291H408.49H413.038C414.529 274.291 415.738 275.499 415.738 276.99C415.738 278.481 414.529 279.69 413.038 279.69H408.49H373.183C371.692 279.69 370.483 278.481 370.483 276.99Z" fill="#86A2E2"/>
<path d="M360.165 184.262H414.666C416.744 184.262 418.429 185.947 418.429 188.024V219.158C418.429 221.236 416.744 222.921 414.666 222.921H360.165C358.087 222.921 356.402 221.236 356.402 219.158V188.024C356.402 185.946 358.086 184.262 360.165 184.262Z" fill="#D2DCFF"/>
<path d="M408.726 279.69L409.878 289.241C411.092 289.104 412.201 288.979 413.192 288.868L412.084 279.69H408.726Z" fill="#AEC3FF"/>
<path d="M373.701 279.69L372.033 293.52C373.174 293.392 374.31 293.263 375.439 293.136L377.061 279.69H373.701Z" fill="#AEC3FF"/>
<path d="M326.097 299.065C327.181 298.949 328.318 298.827 329.501 298.698H329.502L331.794 279.69H328.434L326.097 299.065Z" fill="#AEC3FF"/>
<path d="M411.922 222.921H408.562V230.016L411.922 229.644V222.921Z" fill="#AEC3FF"/>
<path d="M362.91 222.921V235.069L366.269 234.697V222.921H362.91Z" fill="#AEC3FF"/>
<path d="M344.718 142.562C345.965 157.693 356.958 167.179 363.408 167.179C364.376 167.179 365.43 167.006 366.53 166.704V174.251H382.892V155.063C383.043 154.666 383.19 154.226 383.334 153.757C390.588 153.064 390.287 141.076 385.977 141.076C385.193 141.076 384.669 141.817 384.339 142.563L383.269 143.633V138.217C383.269 138.217 380.862 138.443 376.122 131.221C374.077 134.323 357.766 139.195 344.677 137.013C344.676 137.013 344.643 139.707 344.718 142.562Z" fill="#FCBEB7"/>
<path d="M364.537 116.476C375.821 116.476 378.078 122.494 378.078 122.494C382.893 122.494 390.265 131.296 385.826 141.075L385.803 141.098L383.268 143.633V138.217C383.268 138.217 380.861 138.443 376.121 131.221C374.076 134.323 357.765 139.195 344.676 137.013C344.676 137.013 344.642 139.707 344.717 142.562C344.717 142.565 344.717 142.568 344.717 142.571C339.828 128.428 349.642 116.476 364.537 116.476Z" fill="#311643"/>
<path d="M369.389 146.693C369.888 146.693 370.292 146.289 370.292 145.79V144.104C370.292 143.605 369.888 143.201 369.389 143.201C368.89 143.201 368.486 143.605 368.486 144.104V145.79C368.486 146.289 368.89 146.693 369.389 146.693Z" fill="#311643"/>
<path d="M352.651 146.693C353.15 146.693 353.554 146.289 353.554 145.79V144.104C353.554 143.605 353.15 143.201 352.651 143.201C352.152 143.201 351.748 143.605 351.748 144.104V145.79C351.748 146.289 352.152 146.693 352.651 146.693Z" fill="#311643"/>
<path d="M362.751 157.23C364.362 157.23 365.459 156.624 366.124 156.072C366.962 155.376 367.31 154.617 367.325 154.585C367.419 154.377 367.326 154.132 367.118 154.038C366.91 153.944 366.666 154.037 366.571 154.244C366.524 154.346 365.38 156.746 362.055 156.361C361.828 156.336 361.623 156.497 361.596 156.725C361.569 156.953 361.732 157.157 361.96 157.183C362.237 157.215 362.5 157.23 362.751 157.23Z" fill="#311643"/>
<path d="M375.382 154.178C377.848 154.178 379.846 152.18 379.846 149.714C379.846 147.249 377.848 145.25 375.382 145.25C372.917 145.25 370.918 147.249 370.918 149.714C370.918 152.18 372.917 154.178 375.382 154.178Z" fill="#F49795"/>
<path d="M345.182 146.008C345.748 149.006 346.696 151.739 347.895 154.172C350.256 154.055 352.133 152.104 352.133 149.714C352.133 147.249 350.135 145.251 347.67 145.251C346.749 145.25 345.893 145.53 345.182 146.008Z" fill="#F49795"/>
<path d="M346.325 142.464C346.325 145.952 349.163 148.789 352.65 148.789C356.058 148.789 358.843 146.08 358.969 142.703C360.861 141.632 362.545 142.401 363.068 142.698C363.192 146.078 365.978 148.789 369.387 148.789C372.875 148.789 375.712 145.952 375.712 142.464C375.712 138.976 372.874 136.139 369.387 136.139C366.129 136.139 363.439 138.615 363.099 141.784C362.274 141.405 360.71 140.953 358.938 141.787C358.599 138.616 355.908 136.139 352.649 136.139C349.163 136.139 346.325 138.976 346.325 142.464ZM363.891 142.464C363.891 139.432 366.357 136.966 369.389 136.966C372.421 136.966 374.887 139.432 374.887 142.464C374.887 145.495 372.421 147.962 369.389 147.962C366.357 147.962 363.891 145.496 363.891 142.464ZM347.153 142.464C347.153 139.432 349.619 136.966 352.651 136.966C355.683 136.966 358.149 139.432 358.149 142.464C358.149 145.495 355.683 147.962 352.651 147.962C349.619 147.962 347.153 145.496 347.153 142.464Z" fill="white"/>
<path d="M366.53 174.251V166.704C370.23 165.687 374.442 163.196 377.608 160.821L366.53 174.251Z" fill="#F9AFAB"/>
<path d="M320.042 303.261L323.458 302.793L326.693 275.971H323.333L320.042 303.261Z" fill="#EBEDF4"/>
<path d="M329.115 200.762L326.148 206.45H341.962L329.115 200.762Z" fill="#FCBEB7"/>
<path d="M359.405 349.782V362.028C359.405 363.456 358.247 364.613 356.819 364.613H322.085C321.755 364.613 321.487 364.345 321.487 364.015V361.758C321.487 360.669 322.122 359.679 323.112 359.226L343.196 349.781H359.405V349.782Z" fill="#2F3D6C"/>
<path d="M359.405 342.815L359.397 349.782H343.197L342.077 342.815H359.405Z" fill="#FCBEB7"/>
<path d="M366.559 167.133L344.566 177.067C341.542 178.433 339.081 180.8 337.599 183.769L329.116 200.761L341.963 206.449L340.899 244.009H404.919L402.124 208.93L413.702 209.005V189.812C413.702 183.867 410.13 178.505 404.644 176.214L382.893 167.132C382.892 167.133 373.389 173.369 366.559 167.133Z" fill="#89AEFF"/>
<path d="M361.295 169.418C364.767 172.327 369.107 173.911 373.69 173.911C378.515 173.911 383.272 171.985 386.828 168.777L386.128 168.485C382.724 171.471 378.259 173.249 373.689 173.249C369.375 173.249 365.284 171.796 361.976 169.122L361.295 169.418Z" fill="white"/>
<path d="M325.319 349.782V362.028C325.319 363.456 324.161 364.613 322.733 364.613H287.999C287.668 364.613 287.401 364.345 287.401 364.015V361.758C287.401 360.669 288.036 359.679 289.026 359.226L309.11 349.781H325.319V349.782Z" fill="#2F3D6C"/>
<path d="M325.319 342.815L325.31 349.782H309.111L307.99 342.815H325.319Z" fill="#FCBEB7"/>
<path d="M370.834 244.01V244.664C370.847 261.115 357.514 274.458 341.062 274.458H327.232L325.32 342.813H307.99L295.213 261.311C293.788 252.222 300.815 244.009 310.014 244.009H370.834V244.01Z" fill="#6277D7"/>
<path d="M295.03 259.027C296.522 261.21 299.033 262.643 301.878 262.643C306.459 262.643 310.172 258.93 310.172 254.349C310.172 249.95 306.747 246.351 302.419 246.073C297.949 248.708 295.006 253.587 295.03 259.027Z" fill="#4A5EA3"/>
<path d="M329.118 258.708L327.232 274.459H338.58L329.118 258.708Z" fill="#4A5EA3"/>
<path d="M404.92 244.01V244.664C404.933 261.115 391.6 274.458 375.148 274.458H361.318L359.405 342.813H342.076L329.299 261.311C327.874 252.222 334.901 244.009 344.1 244.009H404.92V244.01Z" fill="#6277D7"/>
<path d="M413.701 209.006L413.085 230.279C412.918 236.028 408.21 240.603 402.458 240.603H365.427L362.941 231.942L395.605 226.558L395.836 208.89L413.701 209.006Z" fill="#FCBEB7"/>
<path d="M402.719 236.179C402.719 237.86 403.475 239.366 404.666 240.373C408.494 239.564 411.57 236.695 412.661 232.964C411.664 231.585 410.042 230.688 408.21 230.688C405.177 230.687 402.719 233.146 402.719 236.179Z" fill="#F9AFAB"/>
<path d="M395.835 208.891L390.821 227.347L395.604 226.558L395.835 208.891Z" fill="#4A62D3"/>
<path d="M367.504 231.19L373.342 240.603H365.427L362.941 231.942L367.504 231.19Z" fill="#F9AFAB"/>
<path d="M303.871 206.45H352.157C354.209 206.45 356.013 207.809 356.579 209.781L365.427 240.602H385.007C385.948 240.602 386.711 241.365 386.711 242.306C386.711 243.247 385.948 244.01 385.007 244.01H366.405H360.49H308.546L299.449 212.32C298.605 209.38 300.812 206.45 303.871 206.45Z" fill="#4A5EA3"/>
<path d="M329.118 258.708C330.579 261.07 333.193 262.643 336.175 262.643C340.756 262.643 344.469 258.93 344.469 254.349C344.469 249.885 340.943 246.244 336.523 246.062C332.131 248.644 329.208 253.389 329.118 258.708Z" fill="#4A5EA3"/>
<path d="M330.774 229.146C331.76 229.059 332.456 227.822 332.33 226.383C332.203 224.943 331.301 223.847 330.315 223.933C329.33 224.02 328.633 225.257 328.759 226.697C328.886 228.136 329.788 229.232 330.774 229.146Z" fill="#89AEFF"/>
<path d="M403.988 184.026C403.988 186.708 406.163 188.883 408.845 188.883C410.78 188.883 412.449 187.752 413.23 186.116C412.544 183.465 411.131 181.064 409.169 179.181C409.062 179.173 408.954 179.17 408.845 179.17C406.162 179.17 403.988 181.344 403.988 184.026Z" fill="#4A62D3"/>
<path d="M337.898 183.201C338.672 183.722 339.604 184.026 340.607 184.026C343.289 184.026 345.463 181.851 345.463 179.17C345.463 178.355 345.263 177.587 344.908 176.913L344.565 177.068C341.737 178.345 339.402 180.498 337.898 183.201Z" fill="#4A62D3"/>
<path d="M239.521 226.999L222.571 364.043H219.205L236.155 226.999H239.521Z" fill="#D2DCFF"/>
<path d="M166.696 278.98L156.435 364.043H153.071L163.33 278.98H166.696Z" fill="#D2DCFF"/>
<path d="M121.354 278.979L120.2 288.546L111.094 364.042H107.729L116.88 288.172L117.989 278.979H121.354Z" fill="#D2DCFF"/>
<path d="M166.696 364.042H163.33L161.911 352.278L160.229 338.329L154.695 292.447L153.071 278.979H156.436L158.107 292.831L161.911 324.378L163.594 338.327L166.696 364.042Z" fill="#D2DCFF"/>
<path d="M212.037 364.042H208.672L200.709 298.018H200.708L198.412 278.979H201.777L204.118 298.386L212.037 364.042Z" fill="#D2DCFF"/>
<path d="M121.518 222.116H118.153V273.571H121.518V222.116Z" fill="#D2DCFF"/>
<path d="M167.244 222.116H163.879V273.571H167.244V222.116Z" fill="#D2DCFF"/>
<path d="M203.19 273.571H156.955C158.448 273.571 159.659 274.782 159.659 276.275C159.659 277.768 158.448 278.979 156.955 278.979H203.19C204.683 278.979 205.894 277.768 205.894 276.275C205.894 274.782 204.683 273.571 203.19 273.571Z" fill="#D2DCFF"/>
<path d="M159.659 276.275C159.659 274.782 158.448 273.571 156.955 273.571H121.589H117.034C115.541 273.571 114.33 274.782 114.33 276.275C114.33 277.768 115.541 278.979 117.034 278.979H121.589H156.955C158.448 278.979 159.659 277.768 159.659 276.275Z" fill="#86A2E2"/>
<path d="M168.651 222.116H116.747C113.924 222.116 111.635 219.827 111.635 217.004V188.506C111.635 185.683 113.924 183.394 116.747 183.394H168.651C171.474 183.394 173.763 185.683 173.763 188.506V217.004C173.763 219.828 171.475 222.116 168.651 222.116Z" fill="#D2DCFF"/>
<path d="M121.353 278.979L120.199 288.546C118.983 288.409 117.872 288.284 116.879 288.172L117.988 278.979H121.353Z" fill="#AEC3FF"/>
<path d="M156.436 278.979L158.107 292.832C156.964 292.704 155.826 292.575 154.695 292.447L153.071 278.979H156.436Z" fill="#AEC3FF"/>
<path d="M204.118 298.386C203.032 298.27 201.893 298.147 200.709 298.019H200.708L198.412 278.979H201.777L204.118 298.386Z" fill="#AEC3FF"/>
<path d="M118.153 222.116H121.518V229.223L118.153 228.851V222.116Z" fill="#AEC3FF"/>
<path d="M167.244 222.116V234.285L163.879 233.913V222.116H167.244Z" fill="#AEC3FF"/>
<path d="M173.827 131.818C169.873 138.359 157.788 147.771 139.818 142.026V142.027C139.762 142.019 139.706 142.014 139.647 142.014C135.372 142.014 135.074 153.903 142.268 154.59C142.374 154.939 142.483 155.27 142.594 155.581V174.915H158.821V167.4C159.952 167.719 161.036 167.902 162.029 167.902C168.741 167.902 180.409 157.548 180.674 141.237C178.878 140.833 173.827 136.382 173.827 131.818Z" fill="#FCBEB7"/>
<path d="M184.083 136.494C184.083 125.751 174.608 117.046 160.4 117.046C148.592 117.046 144.534 123.562 144.534 123.562C144.534 123.562 133.373 125.974 133.373 139.843C133.373 152.735 133.373 174.916 133.373 174.916H151.712H152.647H166.191H180.914V146.032C182.077 144.604 184.083 141.427 184.083 136.494ZM162.029 167.903C161.036 167.903 159.952 167.72 158.821 167.401V174.916H142.594V155.582C142.483 155.272 142.374 154.94 142.268 154.591C135.074 153.903 135.372 142.015 139.647 142.015C139.705 142.015 139.762 142.02 139.818 142.028V142.027C157.788 147.772 169.873 138.359 173.827 131.819C173.827 136.383 178.878 140.833 180.675 141.239C180.409 157.549 168.741 167.903 162.029 167.903Z" fill="#311643"/>
<path d="M129.885 173.49L142.594 167.602L149.569 167.787L158.821 168.223L172.118 172.26V189.226H129.885V173.49Z" fill="#FCBEB7"/>
<path d="M172.118 190.265V172.261L158.821 168.224V167.401C155.061 166.34 150.787 163.77 147.649 161.372L172.118 190.265Z" fill="#F9AFAB"/>
<path d="M150.154 155.009C152.599 155.009 154.581 153.027 154.581 150.582C154.581 148.137 152.599 146.155 150.154 146.155C147.709 146.155 145.727 148.137 145.727 150.582C145.727 153.027 147.709 155.009 150.154 155.009Z" fill="#F49795"/>
<path d="M180.105 146.906C179.544 149.879 178.603 152.59 177.415 155.002C175.074 154.886 173.212 152.951 173.212 150.581C173.212 148.136 175.194 146.155 177.638 146.155C178.551 146.155 179.4 146.432 180.105 146.906Z" fill="#F49795"/>
<path d="M172.617 137.118C169.385 137.118 166.716 139.576 166.38 142.72C164.623 141.893 163.072 142.341 162.253 142.717C161.915 139.574 159.248 137.118 156.017 137.118C152.558 137.118 149.744 139.932 149.744 143.391C149.744 146.85 152.558 149.664 156.017 149.664C159.399 149.664 162.163 146.974 162.284 143.621C162.805 143.321 164.46 142.557 166.349 143.628C166.474 146.977 169.237 149.664 172.616 149.664C176.075 149.664 178.889 146.85 178.889 143.391C178.889 139.932 176.076 137.118 172.617 137.118ZM156.017 148.844C153.011 148.844 150.564 146.398 150.564 143.391C150.564 140.385 153.01 137.939 156.017 137.939C159.024 137.939 161.47 140.385 161.47 143.391C161.47 146.398 159.024 148.844 156.017 148.844ZM172.617 148.844C169.611 148.844 167.164 146.398 167.164 143.391C167.164 140.385 169.61 137.939 172.617 137.939C175.624 137.939 178.07 140.385 178.07 143.391C178.07 146.398 175.624 148.844 172.617 148.844Z" fill="white"/>
<path d="M172.621 147.403C172.127 147.403 171.726 147.002 171.726 146.508V144.836C171.726 144.341 172.127 143.94 172.621 143.94C173.115 143.94 173.516 144.341 173.516 144.836V146.508C173.516 147.002 173.116 147.403 172.621 147.403Z" fill="#311643"/>
<path d="M156.289 147.403C155.795 147.403 155.394 147.002 155.394 146.508V144.836C155.394 144.341 155.795 143.94 156.289 143.94C156.784 143.94 157.184 144.341 157.184 144.836V146.508C157.185 147.002 156.784 147.403 156.289 147.403Z" fill="#311643"/>
<path d="M162.681 158.036C161.083 158.036 159.995 157.435 159.336 156.888C158.505 156.198 158.16 155.445 158.145 155.413C158.052 155.206 158.144 154.963 158.351 154.87C158.557 154.777 158.799 154.869 158.893 155.074C158.94 155.176 160.075 157.555 163.372 157.174C163.598 157.148 163.801 157.309 163.827 157.535C163.853 157.76 163.692 157.964 163.466 157.99C163.191 158.021 162.929 158.036 162.681 158.036Z" fill="#311643"/>
<path d="M199.411 357.648L184.526 351.249L185.289 354.938L166.978 349.188V354.435C166.978 356.28 167.942 357.953 169.459 358.893L171.035 363.395C171.171 363.784 171.538 364.045 171.951 364.045C172.487 364.045 172.921 363.611 172.921 363.075V360.147L185.436 364.045H198.096C199.937 364.045 201.429 362.553 201.429 360.712C201.428 359.378 200.634 358.174 199.411 357.648Z" fill="#2F3D6C"/>
<path d="M231.872 357.648L216.985 351.249L217.749 354.938L199.438 349.188V354.435C199.438 356.28 200.403 357.953 201.92 358.893L203.495 363.395C203.631 363.784 203.998 364.045 204.411 364.045C204.947 364.045 205.38 363.611 205.38 363.075V360.147L217.896 364.045H230.556C232.397 364.045 233.889 362.553 233.889 360.712C233.889 359.378 233.096 358.174 231.872 357.648Z" fill="#2F3D6C"/>
<path d="M166.978 342.208L166.985 349.187L185.289 354.937L184.526 351.249L183.005 350.472L184.334 342.208H166.978Z" fill="#FCBEB7"/>
<path d="M199.438 342.208L199.447 349.187L217.75 354.937L216.985 351.249L215.466 350.475L216.795 342.208H199.438Z" fill="#FCBEB7"/>
<path d="M153.848 243.241V243.897C153.835 260.376 167.19 273.741 183.669 273.741H197.522L199.439 342.209H216.796L229.594 260.573C231.021 251.469 223.983 243.242 214.769 243.242H153.848V243.241Z" fill="#6277D7"/>
<path d="M196.33 265.692L197.521 273.74H194.993L196.33 265.692Z" fill="#4A5EA3"/>
<path d="M126.617 255.679C127.486 265.893 136.03 273.741 146.281 273.741H165.061L166.978 342.209H184.334L196.998 261.435C198.496 251.879 191.108 243.242 181.435 243.242H180.046L176.062 231.334H130.34L126.864 250.482C126.552 252.195 126.469 253.943 126.617 255.679Z" fill="#6277D7"/>
<path d="M153.306 181.57C156.388 181.57 158.853 178.602 160.515 175.596H142.938C145.618 178.594 149.291 181.57 153.306 181.57Z" fill="white"/>
<path d="M186.337 182.028L185.121 180.135C183.542 177.677 181.32 175.721 178.718 174.465C177.993 174.116 177.24 173.821 176.461 173.584L162.919 169.46C162.919 169.95 162.067 172.79 160.515 175.597C158.853 178.603 156.388 181.571 153.306 181.571C149.291 181.571 145.62 178.595 142.939 175.597C140.219 172.555 138.52 169.49 138.52 169.49L126.419 175.097C121.467 177.392 117.82 181.807 116.502 187.105L111.108 204.342C110.185 207.292 109.715 210.365 109.715 213.456V214.884C109.715 218.589 112.719 221.592 116.424 221.592H129.325L130.34 231.333H176.061L187.585 183.97L186.337 182.028Z" fill="#FE9ECC"/>
<path d="M153.757 185.846C151.215 185.846 148.629 185.073 146.069 183.547C144.037 182.336 142.017 180.651 140.065 178.537C136.752 174.951 134.733 171.289 134.713 171.253L135.393 170.938C135.412 170.974 137.37 174.523 140.624 178.043C142.526 180.1 144.489 181.738 146.458 182.91C148.898 184.363 151.354 185.099 153.757 185.099C156.025 185.099 158.068 184.342 159.829 182.849C161.254 181.641 162.504 179.95 163.543 177.824C165.329 174.169 165.875 170.397 165.88 170.36L166.622 170.586C166.6 170.741 166.054 174.376 164.221 178.136C163.137 180.36 161.824 182.135 160.319 183.413C158.418 185.028 156.21 185.846 153.757 185.846Z" fill="white"/>
<path d="M229.605 260.481C228.089 262.114 225.924 263.136 223.519 263.136C218.93 263.136 215.209 259.416 215.209 254.827C215.209 250.238 218.93 246.519 223.519 246.519C223.735 246.519 223.949 246.527 224.161 246.543C228.154 249.757 230.44 254.953 229.605 260.481Z" fill="#4A5EA3"/>
<path d="M197.189 258.776C195.784 261.373 193.037 263.136 189.878 263.136C185.289 263.136 181.57 259.416 181.57 254.827C181.57 250.238 185.289 246.519 189.878 246.519C190.325 246.519 190.763 246.555 191.191 246.623C194.819 249.493 197.132 253.91 197.189 258.776Z" fill="#4A5EA3"/>
<path d="M115.748 221.591H165.915V215.259L116.437 209.566C112.856 209.154 109.715 211.954 109.715 215.559C109.716 218.891 112.416 221.591 115.748 221.591Z" fill="#FCBEB7"/>
<path d="M228.675 183.969H177.416C175.361 183.969 173.554 185.33 172.987 187.306L164.124 218.178H144.553C143.628 218.178 142.839 218.897 142.807 219.822C142.773 220.793 143.549 221.591 144.513 221.591H169.069H221.099L231.01 187.067C231.455 185.516 230.29 183.969 228.675 183.969Z" fill="#4A5EA3"/>
<path d="M201.181 204.158C201.308 202.717 200.61 201.478 199.622 201.391C198.635 201.304 197.731 202.402 197.605 203.844C197.478 205.285 198.176 206.524 199.163 206.611C200.151 206.698 201.054 205.6 201.181 204.158Z" fill="#2F3D6C"/>
<path d="M130.339 231.333L128.51 241.408L177.112 234.474L176.061 231.333H130.339Z" fill="#4A5EA3"/>
<path d="M127.709 177.973C127.709 181.013 125.245 183.477 122.204 183.477C120.815 183.477 119.546 182.962 118.577 182.113C120.414 179.08 123.128 176.621 126.418 175.096L126.787 174.925C127.37 175.798 127.709 176.847 127.709 177.973Z" fill="#FF78BA"/>
<path d="M186.337 182.028C185.484 182.572 184.471 182.886 183.385 182.886C180.345 182.886 177.88 180.422 177.88 177.382C177.88 176.311 178.187 175.31 178.717 174.464C181.32 175.72 183.542 177.676 185.12 180.134L186.337 182.028Z" fill="#FF78BA"/>
<path d="M168.735 202.118C168.522 202.859 159.212 212.885 159.212 212.885L134.405 211.634L164.994 215.154L168.735 202.118Z" fill="#FF78BA"/>
<path d="M70.7456 227L66.2107 263.665L53.7957 364.043H50.4297L62.8097 263.952L67.3806 227H70.7456Z" fill="#D2DCFF"/>
<path d="M115.284 364.043H111.919L99.1598 260.887L94.9688 227H98.3337L102.491 260.606L115.284 364.043Z" fill="#D2DCFF"/>
<path d="M67.3805 227H70.7455L66.2106 263.665L62.8096 263.952L67.3805 227Z" fill="#AEC3FF"/>
<path d="M98.3337 227L102.491 260.606L99.1598 260.887L94.9688 227H98.3337Z" fill="#AEC3FF"/>
<path d="M284.059 364.043H280.694L266.193 246.8L263.744 227H267.109L269.524 246.519L284.059 364.043Z" fill="#D2DCFF"/>
<path d="M269.524 246.519L266.193 246.8L263.744 227H267.109L269.524 246.519Z" fill="#AEC3FF"/>
<path d="M276.028 221.591H104.392V226.999H276.028C277.521 226.999 278.732 225.788 278.732 224.295C278.732 222.802 277.521 221.591 276.028 221.591Z" fill="#D2DCFF"/>
<path d="M69.4547 221.591H59.3126C57.8196 221.591 56.6086 222.802 56.6086 224.295C56.6086 225.788 57.8196 226.999 59.3126 226.999H69.4547H104.392V221.591H69.4547Z" fill="#86A2E2"/>
<path d="M272.167 215.546V214.168C272.167 213.741 271.821 213.396 271.395 213.396H239.406C237.792 213.396 236.484 214.704 236.484 216.318V218.669C236.484 220.283 237.792 221.592 239.406 221.592H271.395C271.821 221.592 272.167 221.246 272.167 220.82V219.441C272.167 219.015 271.821 218.669 271.395 218.669H240.581C239.932 218.669 239.406 218.143 239.406 217.494C239.406 216.845 239.932 216.319 240.581 216.319H271.395C271.822 216.318 272.167 215.973 272.167 215.546Z" fill="#6277D7"/>
<path d="M270.786 216.318V218.669H240.582C239.933 218.669 239.407 218.143 239.407 217.494C239.407 216.845 239.933 216.319 240.582 216.319H270.786V216.318Z" fill="#D2DCFF"/>
<path d="M269.881 207.351V205.972C269.881 205.546 269.535 205.2 269.109 205.2H241.692C240.078 205.2 238.77 206.509 238.77 208.123V210.474C238.77 212.088 240.078 213.396 241.692 213.396H269.109C269.535 213.396 269.881 213.051 269.881 212.624V211.245C269.881 210.819 269.535 210.473 269.109 210.473H242.867C242.218 210.473 241.692 209.947 241.692 209.298C241.692 208.649 242.218 208.123 242.867 208.123H269.109C269.535 208.122 269.881 207.777 269.881 207.351Z" fill="#F9A0C0"/>
<path d="M268.865 208.122V210.473H242.867C242.218 210.473 241.692 209.947 241.692 209.298C241.692 208.649 242.218 208.123 242.867 208.123H268.865V208.122Z" fill="#FFD9E8"/>
<path d="M84.5216 208.44H99.6167C100.362 208.44 100.939 209.091 100.85 209.83L99.5726 220.497C99.4976 221.121 98.9686 221.591 98.3396 221.591H85.7987C85.1697 221.591 84.6406 221.121 84.5656 220.497L83.2887 209.83C83.2007 209.091 83.7776 208.44 84.5216 208.44Z" fill="#D2DCFF"/>
<path d="M115.831 219.564C118.043 219.564 119.836 217.771 119.836 215.559C119.836 213.347 118.043 211.554 115.831 211.554C113.619 211.554 111.826 213.347 111.826 215.559C111.826 217.771 113.619 219.564 115.831 219.564Z" fill="#F9AFAB"/>
<path d="M468.495 278.758L466.247 297.409L463.545 319.803L461.847 333.882L461.269 338.657L459.571 352.74L458.139 364.613H454.742L457.875 338.66L459.571 324.578L460.148 319.803L461.847 305.723V305.72L462.974 296.377L465.098 278.758H468.495Z" fill="#D2DCFF"/>
<path d="M491.248 364.613H487.852L480.282 301.85L477.496 278.758H480.893L483.812 302.965L491.248 364.613Z" fill="#D2DCFF"/>
<path d="M446.196 278.758L444.764 290.618L438.97 338.657L437.272 352.74L435.84 364.613H432.443L435.573 338.66L437.272 324.578L441.494 289.583L442.799 278.758H446.196Z" fill="#D2DCFF"/>
<path d="M468.948 364.613H465.552L461.847 333.882L460.148 319.803L457.097 294.517L455.196 278.758H458.593L460.631 295.634L461.847 305.72V305.723L463.545 319.803L468.948 364.613Z" fill="#D2DCFF"/>
<path d="M483.186 278.757H439.109C437.644 278.757 436.458 277.569 436.458 276.105V275.951C436.458 274.486 437.645 273.299 439.109 273.299H483.186C484.651 273.299 485.838 274.487 485.838 275.951V276.105C485.838 277.569 484.651 278.757 483.186 278.757Z" fill="#D2DCFF"/>
<path d="M461.932 278.757H439.109C437.644 278.757 436.458 277.569 436.458 276.105V275.951C436.458 274.486 437.645 273.299 439.109 273.299H461.932C463.397 273.299 464.583 274.487 464.583 275.951V276.105C464.583 277.569 463.397 278.757 461.932 278.757Z" fill="#86A2E2"/>
<path d="M453.529 260.024H468.765C469.516 260.024 470.099 260.68 470.01 261.427L468.721 272.194C468.646 272.824 468.111 273.298 467.476 273.298H454.818C454.183 273.298 453.649 272.824 453.573 272.194L452.284 261.427C452.195 260.681 452.778 260.024 453.529 260.024Z" fill="#D2DCFF"/>
<path d="M466.378 255.631V250.735L463.448 256.3V247.262L461.147 252.953L458.846 247.262V256.3L455.917 250.735V255.631L451.649 248.768L453.529 260.024H461.147H468.766L470.646 248.768L466.378 255.631Z" fill="#FE9ECC"/>
<path d="M446.196 278.758L444.764 290.618L441.494 289.583L442.799 278.758H446.196Z" fill="#AEC3FF"/>
<path d="M460.631 295.634L457.097 294.517L455.196 278.758H458.593L460.631 295.634Z" fill="#AEC3FF"/>
<path d="M468.495 278.758L466.247 297.409L462.974 296.377L465.098 278.758H468.495Z" fill="#AEC3FF"/>
<path d="M483.812 302.965L480.282 301.85L477.496 278.758H480.893L483.812 302.965Z" fill="#AEC3FF"/>
<path d="M107.729 81.696V122.899C107.729 124.353 106.55 125.532 105.096 125.532H55.5636C54.1096 125.532 52.9307 124.353 52.9307 122.899V81.696C52.9307 80.242 54.1086 79.063 55.5636 79.063H105.096C106.55 79.063 107.729 80.242 107.729 81.696Z" fill="#FFD9E8"/>
<path d="M107.729 81.696V89.4641H52.9307V81.696C52.9307 80.242 54.1096 79.063 55.5636 79.063H105.096C106.55 79.063 107.729 80.242 107.729 81.696Z" fill="#FE9ECC"/>
<path d="M67.7806 82.3611C67.0296 82.3611 66.4216 81.7532 66.4216 81.0022V77.125C66.4216 76.375 67.0306 75.7661 67.7806 75.7661C68.5316 75.7661 69.1396 76.375 69.1396 77.125V81.0022C69.1406 81.7532 68.5316 82.3611 67.7806 82.3611Z" fill="#FE9ECC"/>
<path d="M92.8776 82.3611C92.1266 82.3611 91.5186 81.7532 91.5186 81.0022V77.125C91.5186 76.375 92.1276 75.7661 92.8776 75.7661C93.6286 75.7661 94.2366 76.375 94.2366 77.125V81.0022C94.2366 81.7532 93.6286 82.3611 92.8776 82.3611Z" fill="#FE9ECC"/>
<path d="M68.5786 108.653L74.4276 103.4C74.7256 103.131 75.0227 102.826 75.3207 102.485C75.6187 102.145 75.7677 101.748 75.7677 101.294C75.7677 100.784 75.5826 100.383 75.2146 100.092C74.8456 99.801 74.4136 99.656 73.9176 99.656C73.3216 99.656 72.8577 99.84 72.5247 100.209C72.1917 100.578 72.0037 101.032 71.9607 101.57L68.7706 101.336C68.8126 100.556 68.9756 99.8792 69.2596 99.3052C69.5436 98.7312 69.9186 98.2521 70.3866 97.8691C70.8546 97.4861 71.4037 97.1991 72.0347 97.0081C72.6657 96.8171 73.3497 96.7212 74.0867 96.7212C74.7677 96.7212 75.4056 96.8171 76.0006 97.0081C76.5956 97.1991 77.1137 97.4831 77.5537 97.8591C77.9927 98.2351 78.3367 98.7062 78.5857 99.2742C78.8337 99.8412 78.9576 100.501 78.9576 101.252C78.9576 101.734 78.9076 102.17 78.8086 102.56C78.7096 102.95 78.5707 103.305 78.3937 103.623C78.2167 103.942 78.0066 104.237 77.7666 104.506C77.5256 104.776 77.2626 105.038 76.9796 105.293L72.4066 109.228H79.0846V112.036H68.5776V108.653H68.5786Z" fill="#FE9ECC"/>
<path d="M86.6145 106.654C86.4445 106.696 86.2745 106.732 86.1045 106.76C85.9345 106.789 85.7565 106.802 85.5725 106.802C84.8635 106.802 84.2186 106.675 83.6376 106.419C83.0556 106.164 82.5596 105.816 82.1486 105.377C81.7376 104.938 81.4185 104.417 81.1915 103.814C80.9645 103.212 80.8516 102.57 80.8516 101.889C80.8516 101.109 80.9965 100.404 81.2875 99.7732C81.5775 99.1422 81.9755 98.6 82.4785 98.146C82.9815 97.692 83.5735 97.341 84.2545 97.093C84.9355 96.845 85.6726 96.7212 86.4666 96.7212C87.2466 96.7212 87.9795 96.845 88.6675 97.093C89.3555 97.341 89.9506 97.692 90.4546 98.146C90.9576 98.6 91.3545 99.1422 91.6455 99.7732C91.9355 100.404 92.0815 101.11 92.0815 101.889C92.0815 102.428 92.0315 102.92 91.9325 103.367C91.8335 103.814 91.7026 104.236 91.5396 104.633C91.3766 105.03 91.1846 105.409 90.9656 105.771C90.7456 106.133 90.5155 106.505 90.2745 106.888L86.9775 112.035H83.0856L86.6145 106.654ZM84.0405 102.017C84.0405 102.698 84.2636 103.261 84.7106 103.708C85.1576 104.155 85.7416 104.378 86.4656 104.378C87.1896 104.378 87.7736 104.155 88.2206 103.708C88.6676 103.261 88.8905 102.698 88.8905 102.017C88.8905 101.336 88.6676 100.773 88.2206 100.326C87.7736 99.8792 87.1896 99.656 86.4656 99.656C85.7416 99.656 85.1576 99.8792 84.7106 100.326C84.2646 100.773 84.0405 101.337 84.0405 102.017Z" fill="#FE9ECC"/>
<path d="M86.6245 119.949H74.0345C73.7285 119.949 73.4805 119.701 73.4805 119.395C73.4805 119.089 73.7285 118.841 74.0345 118.841H86.6245C86.9305 118.841 87.1786 119.089 87.1786 119.395C87.1786 119.701 86.9305 119.949 86.6245 119.949Z" fill="#FE9ECC"/>
<path d="M36.3205 309.207C48.1965 287.464 10.7065 277.24 1.66954 285.864C-7.36846 294.489 22.5935 334.339 36.3205 309.207Z" fill="#FE9ECC"/>
<path d="M52.0815 302.57C75.3865 302.57 64.8394 260.886 54.8754 260.886C42.3834 260.887 25.1555 302.57 52.0815 302.57Z" fill="#FE9ECC"/>
<path d="M70.0445 317.691C89.2585 333.332 106.145 298.335 99.3134 287.876C92.4814 277.417 47.8355 299.612 70.0445 317.691Z" fill="#FE9ECC"/>
<path d="M45.5427 328.04C42.2997 320.536 37.5528 313.544 31.4348 307.26C21.0258 296.57 10.0777 291.556 9.96771 291.507C9.64171 291.36 9.25766 291.505 9.11066 291.83C8.96366 292.156 9.10865 292.539 9.43365 292.687C9.54065 292.735 20.2997 297.669 30.5377 308.197C36.5377 314.366 41.1897 321.224 44.3637 328.58C44.7237 329.415 45.0587 330.258 45.3807 331.106H46.7657C46.3847 330.075 45.9797 329.052 45.5427 328.04Z" fill="#FF78BA"/>
<path d="M54.2965 269.434C54.3385 269.079 54.0845 268.757 53.7295 268.714C53.3735 268.671 53.0525 268.925 53.0105 269.281C52.9685 269.635 49.7005 297.569 49.8675 331.106H51.1624C50.9954 297.656 54.2545 269.787 54.2965 269.434Z" fill="#FF78BA"/>
<path d="M92.8416 292.559C92.6426 292.261 92.2405 292.181 91.9435 292.38C91.8505 292.442 82.5025 298.73 72.8855 309.072C67.6475 314.704 61.6935 322.256 57.3315 331.106H58.7795C63.0435 322.646 68.7655 315.407 73.8135 309.976C83.3295 299.739 92.5706 293.519 92.6636 293.457C92.9596 293.259 93.0396 292.857 92.8416 292.559Z" fill="#FF78BA"/>
<path d="M51.1626 331.106H49.8677H46.7666H45.3816H27.3047C26.6097 331.106 26.1167 331.785 26.3317 332.446L27.4727 335.947L28.0507 337.719L36.3116 363.065C36.5356 363.753 37.1776 364.219 37.9006 364.219H67.6776C68.4006 364.219 69.0426 363.753 69.2666 363.065L77.5277 337.719L78.1046 335.947L79.2456 332.446C79.4616 331.785 78.9687 331.106 78.2737 331.106H58.7756H57.3276H51.1626Z" fill="#D2DCFF"/>
<path d="M78.1067 335.947L77.5297 337.718H28.0507L27.4736 335.947H78.1067Z" fill="#AEC3FF"/>
</svg>
